<?xml version="1.0" encoding="UTF-8" standalone="no"?>
<svg
   xmlns:dc="http://purl.org/dc/elements/1.1/"
   xmlns:cc="http://creativecommons.org/ns#"
   xmlns:rdf="http://www.w3.org/1999/02/22-rdf-syntax-ns#"
   xmlns:svg="http://www.w3.org/2000/svg"
   xmlns="http://www.w3.org/2000/svg"
   xmlns:sodipodi="http://sodipodi.sourceforge.net/DTD/sodipodi-0.dtd"
   xmlns:inkscape="http://www.inkscape.org/namespaces/inkscape"
   id="svg4"
   version="1.1"
   viewBox="0 0 16 16"
   height="16px"
   width="16px"
   inkscape:version="0.48.4 r9939"
   sodipodi:docname="sticky-window-containers.svg">
  <sodipodi:namedview
     pagecolor="#ffffff"
     bordercolor="#666666"
     borderopacity="1"
     objecttolerance="10"
     gridtolerance="10"
     guidetolerance="10"
     inkscape:pageopacity="0"
     inkscape:pageshadow="2"
     inkscape:window-width="1280"
     inkscape:window-height="971"
     id="namedview4067"
     showgrid="true"
     inkscape:zoom="29.5"
     inkscape:cx="12.531022"
     inkscape:cy="7.8567265"
     inkscape:window-x="-8"
     inkscape:window-y="-8"
     inkscape:window-maximized="1"
     inkscape:current-layer="svg4"
     inkscape:snap-global="true"
     showguides="true"
     inkscape:guide-bbox="true">
    <inkscape:grid
       type="xygrid"
       id="grid4094" />
    <sodipodi:guide
       orientation="0,1"
       position="-0.40677966,15.457627"
       id="guide4604" />
    <sodipodi:guide
       orientation="0,1"
       position="0.77966102,0.54237288"
       id="guide4606" />
    <sodipodi:guide
       orientation="1,0"
       position="0.50847458,16.101695"
       id="guide4612" />
    <sodipodi:guide
       orientation="1,0"
       position="15.423729,11.661017"
       id="guide4616" />
  </sodipodi:namedview>
  <metadata
     id="metadata10">
    <rdf:RDF>
      <cc:Work
         rdf:about="">
        <dc:format>image/svg+xml</dc:format>
        <dc:type
           rdf:resource="http://purl.org/dc/dcmitype/StillImage" />
        <dc:title></dc:title>
      </cc:Work>
    </rdf:RDF>
  </metadata>
  <defs
     id="defs8" />
  <path
     id="path2-6"
     d="m 8.7057279,9.7317957 c 0,-0.5479603 0.441189,-0.9921698 0.99217,-0.9921698 l 4.7397981,0 c 0.54796,0 0.99217,0.4411894 0.99217,0.9921698 l 0,4.7397973 c 0,0.547961 -0.44119,0.99217 -0.99217,0.99217 l -4.7397981,0 c -0.547961,0 -0.99217,-0.441189 -0.99217,-0.99217 z"
     inkscape:connector-curvature="0"
     sodipodi:nodetypes="sssssssss"
     style="fill:#ff54fd;fill-opacity:1" />
  <path
     id="path2-8"
     d="m 0.53623613,1.5284058 c 0,-0.5479602 0.44118945,-0.9921697 0.99216967,-0.9921697 l 4.739799,0 c 0.54796,0 0.992169,0.4411894 0.992169,0.9921697 l 0,4.7397982 c 0,0.547961 -0.441189,0.99217 -0.992169,0.99217 l -4.739799,0 c -0.54796022,0 -0.99216967,-0.441189 -0.99216967,-0.99217 z"
     inkscape:connector-curvature="0"
     sodipodi:nodetypes="sssssssss"
     style="fill:#0098f7;fill-opacity:1" />
  <path
     id="path2-8-5"
     d="m 8.7735243,1.5453549 c 0,-0.54796025 0.4411895,-0.99216975 0.9921697,-0.99216975 l 4.739799,0 c 0.54796,0 0.992169,0.4411894 0.992169,0.99216975 l 0,4.7397982 c 0,0.547961 -0.441189,0.99217 -0.992169,0.99217 l -4.739799,0 c -0.5479602,0 -0.9921697,-0.441189 -0.9921697,-0.99217 z"
     inkscape:connector-curvature="0"
     sodipodi:nodetypes="sssssssss"
     style="fill:#0098f7;fill-opacity:1" />
  <path
     id="path2-6-6"
     d="m 0.53623637,9.765694 c 0,-0.5479603 0.441189,-0.9921698 0.99217003,-0.9921698 l 4.7397981,0 c 0.54796,0 0.99217,0.4411894 0.99217,0.9921698 l 0,4.739797 c 0,0.547961 -0.44119,0.99217 -0.99217,0.99217 l -4.7397981,0 c -0.54796103,0 -0.99217003,-0.441189 -0.99217003,-0.99217 z"
     inkscape:connector-curvature="0"
     sodipodi:nodetypes="sssssssss"
     style="fill:#ff54fd;fill-opacity:1" />
</svg>
